<svg width="46" height="46" viewBox="0 0 46 46" fill="none" xmlns="http://www.w3.org/2000/svg">
<path d="M23.0322 17.493C19.9266 17.493 17.3903 20.0293 17.3903 23.1349C17.3903 26.2406 19.9266 28.7769 23.0322 28.7769C26.1379 28.7769 28.6742 26.2406 28.6742 23.1349C28.6742 20.0293 26.1379 17.493 23.0322 17.493ZM23.0322 26.6547C21.0653 26.6547 19.5125 25.0501 19.5125 23.1349C19.5125 21.168 21.1171 19.6152 23.0322 19.6152C24.9991 19.6152 26.552 21.2198 26.552 23.1349C26.552 25.1018 24.9991 26.6547 23.0322 26.6547Z" fill="#6D777E"/>
<path d="M35.7654 24.429C35.2995 24.1184 35.0407 23.6526 35.0407 23.135C35.0407 22.6174 35.2995 22.0998 35.7654 21.841C36.5418 21.3233 36.9041 20.3399 36.6453 19.4599C36.3865 18.4247 35.9724 17.3895 35.2995 16.199C34.8337 15.3708 33.902 14.9567 32.9703 15.112C32.4009 15.2155 31.8833 15.0603 31.521 14.6979C31.1586 14.3356 31.0033 13.818 31.0551 13.2486C31.2622 12.3687 30.7963 11.3852 29.9681 10.9194C28.9329 10.2983 27.8459 9.88417 26.7072 9.5736C25.8273 9.31479 24.8438 9.67712 24.3262 10.4535V10.5053C24.0674 10.9711 23.6015 11.23 23.0839 11.23C22.5663 11.23 22.0487 10.9711 21.7899 10.5053C21.2723 9.72888 20.2888 9.36656 19.4089 9.62536C18.3737 9.88417 17.3384 10.2983 16.1479 10.9711C15.3198 11.437 14.9057 12.3687 15.061 13.3004C15.1645 13.8698 15.0092 14.3874 14.6469 14.7497C14.2846 15.112 13.7669 15.2673 13.1976 15.2155C12.3176 15.0085 11.3342 15.4744 10.8683 16.3025C10.2472 17.3377 9.83311 18.4247 9.52254 19.5635C9.26373 20.4434 9.62606 21.4269 10.4025 21.9445C10.8683 22.255 11.1271 22.7209 11.1271 23.2385C11.1271 23.7561 10.8683 24.2737 10.4025 24.5325C9.62606 25.0501 9.26373 26.0336 9.52254 26.9135C9.78134 27.9487 10.1954 28.984 10.8683 30.1745C11.3342 31.0026 12.2659 31.4167 13.1976 31.2615C13.7669 31.1579 14.2846 31.3132 14.6469 31.6755C15.0092 32.0379 15.1645 32.5555 15.1127 33.1248C14.9057 34.0048 15.3715 34.9882 16.1997 35.4541C17.2349 36.0752 18.3219 36.4893 19.4607 36.7999C19.6677 36.8516 19.8747 36.8516 20.03 36.8516C20.7547 36.8516 21.4276 36.4893 21.8417 35.8682C22.1522 35.4023 22.6181 35.1435 23.1357 35.1435C23.6533 35.1435 24.1709 35.4023 24.4297 35.8682C24.9473 36.6446 25.9308 37.0069 26.8107 36.7481C27.8459 36.4893 28.8811 36.0752 30.0717 35.4023C30.8998 34.9365 31.3139 34.0048 31.1586 33.0731C31.0551 32.5037 31.2104 31.9861 31.5727 31.6238C31.935 31.2615 32.4527 31.1062 33.022 31.1579C33.902 31.365 34.8854 30.8991 35.3513 30.0709C35.9724 29.0357 36.3865 27.9487 36.6971 26.81C36.9041 25.9818 36.5418 24.9984 35.7654 24.429ZM33.4361 29.0357C33.3844 29.0875 33.3844 29.0875 33.3844 29.0875C32.1939 28.8287 30.8998 29.191 30.0199 30.0709C29.14 30.9509 28.7776 32.1931 29.0364 33.4354V33.4872H28.9847C28.1565 33.953 27.2248 34.3153 26.2413 34.6259H26.1896C26.1896 34.6259 26.1896 34.6259 26.1378 34.6259L26.0861 34.5742C25.3614 33.5907 24.2227 32.9696 22.9804 32.9696C21.7381 32.9696 20.5994 33.5907 19.8747 34.6259C19.8747 34.6259 19.823 34.6259 19.7712 34.6259C18.7878 34.3671 17.8561 33.953 17.0279 33.4872C16.9761 33.4354 16.9761 33.4354 16.9761 33.4354C17.2349 32.2449 16.8726 30.9509 15.9927 30.0709C15.3198 29.3981 14.3363 28.984 13.4046 28.984C13.094 28.984 12.8352 29.0357 12.68 29.0875H12.6282V29.0357C12.1623 28.2076 11.8 27.2759 11.4895 26.2924V26.2406C11.4895 26.2406 11.4895 26.2406 11.5412 26.1889C12.5764 25.4642 13.1976 24.3772 13.1976 23.0832C13.1976 21.7892 12.5764 20.7022 11.5412 19.9776C11.5412 19.9776 11.5412 19.9258 11.5412 19.874C11.8 18.8388 12.2141 17.9589 12.6282 17.1825C12.68 17.1307 12.68 17.1307 12.68 17.1307C13.8705 17.3895 15.1645 17.0272 16.0444 16.1472C16.9244 15.2673 17.2867 14.025 17.0279 12.7828V12.731H17.0796C17.9078 12.2652 18.7878 11.9028 19.823 11.5923C19.8747 11.5923 19.9265 11.5923 19.9265 11.5923C20.6512 12.6275 21.7381 13.2486 23.0322 13.2486C24.2744 13.2486 25.4132 12.6275 26.1378 11.5923C26.1378 11.5923 26.1896 11.5923 26.2413 11.5923C27.2766 11.8511 28.1565 12.2652 28.9329 12.6793C28.9847 12.731 28.9847 12.731 28.9847 12.731C28.7259 13.9215 29.0882 15.2155 29.9681 16.0955C30.8481 16.9754 32.0903 17.3377 33.3326 17.0789H33.3844V17.1307C33.8502 17.9589 34.2125 18.8906 34.5231 19.874V19.9258C34.5231 19.9258 34.5231 19.9258 34.4713 19.9776C33.4361 20.6505 32.8667 21.7892 32.8667 23.0315C32.8667 24.2737 33.4879 25.4125 34.5231 26.1371C34.5231 26.1371 34.5231 26.1889 34.5231 26.2406C34.3161 27.3276 33.902 28.2593 33.4361 29.0357Z" fill="#6D777E"/>
</svg>
