<svg width="46" height="46" viewBox="0 0 46 46" fill="none" xmlns="http://www.w3.org/2000/svg">
<path d="M21.0117 26.9998C21.0273 26.0701 21.1328 25.3357 21.3281 24.7966C21.5234 24.2576 21.9219 23.6599 22.5234 23.0037L24.0586 21.4216C24.7148 20.6794 25.043 19.8826 25.043 19.031C25.043 18.2107 24.8281 17.5701 24.3984 17.1091C23.9687 16.6404 23.3437 16.406 22.5234 16.406C21.7266 16.406 21.0859 16.6169 20.6016 17.0388C20.1172 17.4607 19.875 18.0271 19.875 18.738H17.707C17.7227 17.4724 18.1719 16.4529 19.0547 15.6794C19.9453 14.8982 21.1016 14.5076 22.5234 14.5076C24 14.5076 25.1484 14.906 25.9687 15.7029C26.7969 16.4919 27.2109 17.5779 27.2109 18.9607C27.2109 20.3279 26.5781 21.6755 25.3125 23.0037L24.0352 24.2693C23.4648 24.9021 23.1797 25.8123 23.1797 26.9998H21.0117ZM20.918 30.7146C20.918 30.363 21.0234 30.0701 21.2344 29.8357C21.4531 29.5935 21.7734 29.4724 22.1953 29.4724C22.6172 29.4724 22.9375 29.5935 23.1562 29.8357C23.375 30.0701 23.4844 30.363 23.4844 30.7146C23.4844 31.0662 23.375 31.3591 23.1562 31.5935C22.9375 31.8201 22.6172 31.9333 22.1953 31.9333C21.7734 31.9333 21.4531 31.8201 21.2344 31.5935C21.0234 31.3591 20.918 31.0662 20.918 30.7146Z" fill="white"/>
</svg>
