<svg width="44" height="44" viewBox="0 0 44 44" fill="none" xmlns="http://www.w3.org/2000/svg">
<path d="M22.0315 16.2966C18.9949 16.2966 16.5149 18.7766 16.5149 21.8132C16.5149 24.8499 18.9949 27.3298 22.0315 27.3298C25.0682 27.3298 27.5481 24.8499 27.5481 21.8132C27.5481 18.7766 25.0682 16.2966 22.0315 16.2966ZM22.0315 25.2547C20.1083 25.2547 18.59 23.6858 18.59 21.8132C18.59 19.89 20.1589 18.3717 22.0315 18.3717C23.9547 18.3717 25.473 19.9406 25.473 21.8132C25.473 23.7364 23.9547 25.2547 22.0315 25.2547Z" fill="#6D777E"/>
<path d="M34.4817 23.0786C34.0262 22.7749 33.7731 22.3194 33.7731 21.8133C33.7731 21.3072 34.0262 20.8011 34.4817 20.548C35.2408 20.0419 35.5951 19.0803 35.3421 18.2199C35.089 17.2077 34.6841 16.1955 34.0262 15.0314C33.5707 14.2217 32.6597 13.8168 31.7487 13.9686C31.192 14.0698 30.6859 13.918 30.3316 13.5637C29.9773 13.2095 29.8255 12.7034 29.8761 12.1466C30.0785 11.2863 29.6231 10.3246 28.8133 9.86915C27.8011 9.26182 26.7382 8.85694 25.6248 8.55327C24.7644 8.30022 23.8028 8.65449 23.2967 9.41365V9.46427C23.0437 9.91976 22.5882 10.1728 22.0821 10.1728C21.5759 10.1728 21.0698 9.91976 20.8168 9.46427C20.3107 8.7051 19.3491 8.35083 18.4887 8.60388C17.4765 8.85694 16.4643 9.26182 15.3002 9.91976C14.4904 10.3753 14.0856 11.2863 14.2374 12.1972C14.3386 12.754 14.1868 13.2601 13.8325 13.6143C13.4782 13.9686 12.9721 14.1205 12.4154 14.0698C11.555 13.8674 10.5934 14.3229 10.1379 15.1327C9.53059 16.1449 9.1257 17.2077 8.82204 18.3211C8.56899 19.1815 8.92326 20.1431 9.68242 20.6492C10.1379 20.9529 10.391 21.4084 10.391 21.9145C10.391 22.4206 10.1379 22.9267 9.68242 23.1798C8.92326 23.6859 8.56899 24.6475 8.82204 25.5079C9.07509 26.5201 9.47998 27.5323 10.1379 28.6963C10.5934 29.5061 11.5044 29.911 12.4154 29.7592C12.9721 29.658 13.4782 29.8098 13.8325 30.1641C14.1868 30.5183 14.3386 31.0244 14.288 31.5812C14.0856 32.4415 14.5411 33.4031 15.3508 33.8586C16.363 34.466 17.4259 34.8709 18.5393 35.1745C18.7417 35.2251 18.9442 35.2251 19.096 35.2251C19.8046 35.2251 20.4625 34.8709 20.8674 34.2635C21.1711 33.808 21.6266 33.555 22.1327 33.555C22.6388 33.555 23.1449 33.808 23.3979 34.2635C23.904 35.0227 24.8656 35.377 25.726 35.1239C26.7382 34.8709 27.7505 34.466 28.9145 33.808C29.7243 33.3525 30.1292 32.4415 29.9773 31.5306C29.8761 30.9738 30.0279 30.4677 30.3822 30.1134C30.7365 29.7592 31.2426 29.6073 31.7993 29.658C32.6597 29.8604 33.6213 29.4049 34.0768 28.5951C34.6841 27.5829 35.089 26.5201 35.3927 25.4067C35.5951 24.5969 35.2408 23.6353 34.4817 23.0786ZM32.2042 27.5829C32.1536 27.6335 32.1536 27.6335 32.1536 27.6335C30.9895 27.3805 29.7243 27.7347 28.8639 28.5951C28.0035 29.4555 27.6492 30.6702 27.9023 31.8848V31.9354H27.8517C27.0419 32.3909 26.1309 32.7452 25.1693 33.0489H25.1187C25.1187 33.0489 25.1187 33.0489 25.0681 33.0489L25.0175 32.9983C24.3089 32.0367 23.1955 31.4293 21.9808 31.4293C20.7662 31.4293 19.6527 32.0367 18.9442 33.0489C18.9442 33.0489 18.8936 33.0489 18.843 33.0489C17.8814 32.7958 16.9704 32.3909 16.1606 31.9354C16.11 31.8848 16.11 31.8848 16.11 31.8848C16.363 30.7208 16.0088 29.4555 15.1484 28.5951C14.4904 27.9372 13.5288 27.5323 12.6178 27.5323C12.3142 27.5323 12.0611 27.5829 11.9093 27.6335H11.8587V27.5829C11.4032 26.7731 11.0489 25.8621 10.7452 24.9005V24.8499C10.7452 24.8499 10.7452 24.8499 10.7959 24.7993C11.8081 24.0908 12.4154 23.0279 12.4154 21.7627C12.4154 20.4974 11.8081 19.4346 10.7959 18.726C10.7959 18.726 10.7959 18.6754 10.7959 18.6248C11.0489 17.6126 11.4538 16.7522 11.8587 15.9931C11.9093 15.9424 11.9093 15.9424 11.9093 15.9424C13.0733 16.1955 14.3386 15.8412 15.199 14.9808C16.0594 14.1205 16.4137 12.9058 16.1606 11.6911V11.6405H16.2112C17.021 11.185 17.8814 10.8308 18.8936 10.5271C18.9442 10.5271 18.9948 10.5271 18.9948 10.5271C19.7033 11.5393 20.7662 12.1466 22.0314 12.1466C23.2461 12.1466 24.3595 11.5393 25.0681 10.5271C25.0681 10.5271 25.1187 10.5271 25.1693 10.5271C26.1815 10.7801 27.0419 11.185 27.8011 11.5899C27.8517 11.6405 27.8517 11.6405 27.8517 11.6405C27.5986 12.8046 27.9529 14.0698 28.8133 14.9302C29.6737 15.7906 30.8883 16.1449 32.103 15.8918H32.1536V15.9424C32.6091 16.7522 32.9634 17.6632 33.267 18.6248V18.6754C33.267 18.6754 33.267 18.6754 33.2164 18.726C32.2042 19.384 31.6475 20.4974 31.6475 21.7121C31.6475 22.9267 32.2548 24.0402 33.267 24.7487C33.267 24.7487 33.267 24.7993 33.267 24.8499C33.0646 25.9128 32.6597 26.8238 32.2042 27.5829Z" fill="#6D777E"/>
</svg>
