<svg width="44" height="44" viewBox="0 0 44 44" fill="none" xmlns="http://www.w3.org/2000/svg">
<path fill-rule="evenodd" clip-rule="evenodd" d="M14.3248 30.9889L10.793 27.5077C9.91936 26.6466 9.90918 25.2403 10.7702 24.3667L12.7728 22.335L12.7729 22.335L19.0249 16.2433L23.6939 11.6937C24.5599 10.8499 25.9419 10.8539 26.8031 11.7026L32.6026 17.4187C33.4888 18.292 33.4846 19.723 32.5936 20.5913L27.9674 25.0991L21.9796 30.933L33.9853 30.8461C34.3942 30.8431 34.7281 31.1721 34.7311 31.581C34.734 31.99 34.4049 32.3238 33.996 32.3267L10.3059 32.4983C9.89699 32.5012 9.56306 32.1723 9.56009 31.7632C9.55713 31.3544 9.88628 31.0206 10.2951 31.0176L14.3248 30.9889ZM16.4683 30.718C16.272 30.7195 16.0831 30.6428 15.9432 30.5049L11.8323 26.4531C11.5411 26.1661 11.5377 25.6973 11.8247 25.4061L13.8116 23.3902L19.5383 17.8102L26.3926 24.566L20.6818 30.1304L20.6816 30.1304L20.671 30.1409L20.3437 30.473C20.206 30.6129 20.0181 30.6923 19.8218 30.6937L16.4683 30.718ZM27.4534 23.5326L20.5991 16.7769L24.727 12.7545C25.0156 12.4732 25.4763 12.4747 25.7634 12.7575L31.563 18.4736C31.8584 18.7647 31.8571 19.2417 31.56 19.5311L27.4534 23.5326Z" fill="#6D777E" stroke="#6D777E"/>
</svg>
