<svg width="44" height="44" viewBox="0 0 44 44" fill="none" xmlns="http://www.w3.org/2000/svg">
<path d="M22.2905 16.8244C19.2538 16.8244 16.7739 19.3043 16.7739 22.341C16.7739 25.3776 19.2538 27.8575 22.2905 27.8575C25.3271 27.8575 27.807 25.3776 27.807 22.341C27.807 19.3043 25.3271 16.8244 22.2905 16.8244ZM22.2905 25.7825C20.3673 25.7825 18.8489 24.2136 18.8489 22.341C18.8489 20.4177 20.4179 18.8994 22.2905 18.8994C24.2137 18.8994 25.732 20.4684 25.732 22.341C25.732 24.2642 24.2137 25.7825 22.2905 25.7825Z" fill="#6D777E"/>
<path d="M34.7407 23.6063C34.2852 23.3026 34.0321 22.8471 34.0321 22.341C34.0321 21.8349 34.2852 21.3288 34.7407 21.0758C35.4998 20.5697 35.8541 19.608 35.601 18.7477C35.348 17.7355 34.9431 16.7232 34.2852 15.5592C33.8297 14.7494 32.9187 14.3445 32.0077 14.4964C31.451 14.5976 30.9449 14.4458 30.5906 14.0915C30.2363 13.7372 30.0845 13.2311 30.1351 12.6744C30.3375 11.814 29.882 10.8524 29.0723 10.3969C28.06 9.78956 26.9972 9.38468 25.8838 9.08101C25.0234 8.82796 24.0618 9.18223 23.5557 9.94139V9.99201C23.3026 10.4475 22.8471 10.7006 22.341 10.7006C21.8349 10.7006 21.3288 10.4475 21.0758 9.99201C20.5697 9.23284 19.608 8.87857 18.7477 9.13162C17.7354 9.38468 16.7232 9.78956 15.5592 10.4475C14.7494 10.903 14.3445 11.814 14.4964 12.725C14.5976 13.2817 14.4458 13.7878 14.0915 14.1421C13.7372 14.4964 13.2311 14.6482 12.6744 14.5976C11.814 14.3951 10.8524 14.8506 10.3969 15.6604C9.78956 16.6726 9.38468 17.7355 9.08101 18.8489C8.82796 19.7093 9.18223 20.6709 9.94139 21.177C10.3969 21.4806 10.6499 21.9361 10.6499 22.4422C10.6499 22.9484 10.3969 23.4545 9.94139 23.7075C9.18223 24.2136 8.82796 25.1752 9.08101 26.0356C9.33407 27.0478 9.73895 28.06 10.3969 29.2241C10.8524 30.0339 11.7634 30.4387 12.6744 30.2869C13.2311 30.1857 13.7372 30.3375 14.0915 30.6918C14.4458 31.0461 14.5976 31.5522 14.547 32.1089C14.3445 32.9693 14.8 33.9309 15.6098 34.3864C16.622 34.9937 17.6848 35.3986 18.7983 35.7023C19.0007 35.7529 19.2032 35.7529 19.355 35.7529C20.0635 35.7529 20.7215 35.3986 21.1264 34.7913C21.43 34.3358 21.8855 34.0827 22.3916 34.0827C22.8977 34.0827 23.4039 34.3358 23.6569 34.7913C24.163 35.5504 25.1246 35.9047 25.985 35.6517C26.9972 35.3986 28.0094 34.9937 29.1735 34.3358C29.9832 33.8803 30.3881 32.9693 30.2363 32.0583C30.1351 31.5016 30.2869 30.9955 30.6412 30.6412C30.9955 30.2869 31.5016 30.1351 32.0583 30.1857C32.9187 30.3881 33.8803 29.9326 34.3358 29.1229C34.9431 28.1107 35.348 27.0478 35.6516 25.9344C35.8541 25.1246 35.4998 24.163 34.7407 23.6063ZM32.4632 28.1107C32.4126 28.1613 32.4126 28.1613 32.4126 28.1613C31.2485 27.9082 29.9832 28.2625 29.1229 29.1229C28.2625 29.9833 27.9082 31.1979 28.1613 32.4126V32.4632H28.1106C27.3009 32.9187 26.3899 33.2729 25.4283 33.5766H25.3777C25.3777 33.5766 25.3777 33.5766 25.3271 33.5766L25.2764 33.526C24.5679 32.5644 23.4545 31.9571 22.2398 31.9571C21.0251 31.9571 19.9117 32.5644 19.2032 33.5766C19.2032 33.5766 19.1525 33.5766 19.1019 33.5766C18.1403 33.3236 17.2293 32.9187 16.4196 32.4632C16.369 32.4126 16.369 32.4126 16.369 32.4126C16.622 31.2485 16.2677 29.9833 15.4074 29.1229C14.7494 28.4649 13.7878 28.06 12.8768 28.06C12.5732 28.06 12.3201 28.1107 12.1683 28.1613H12.1177V28.1107C11.6622 27.3009 11.3079 26.3899 11.0042 25.4283V25.3777C11.0042 25.3777 11.0042 25.3777 11.0548 25.3271C12.067 24.6185 12.6744 23.5557 12.6744 22.2904C12.6744 21.0251 12.067 19.9623 11.0548 19.2538C11.0548 19.2538 11.0548 19.2032 11.0548 19.1526C11.3079 18.1403 11.7128 17.28 12.1177 16.5208C12.1683 16.4702 12.1683 16.4702 12.1683 16.4702C13.3323 16.7232 14.5976 16.369 15.458 15.5086C16.3183 14.6482 16.6726 13.4335 16.4196 12.2189V12.1683H16.4702C17.28 11.7128 18.1403 11.3585 19.1525 11.0548C19.2032 11.0548 19.2538 11.0548 19.2538 11.0548C19.9623 12.067 21.0251 12.6744 22.2904 12.6744C23.5051 12.6744 24.6185 12.067 25.3271 11.0548C25.3271 11.0548 25.3777 11.0548 25.4283 11.0548C26.4405 11.3079 27.3009 11.7128 28.06 12.1177C28.1106 12.1683 28.1106 12.1683 28.1106 12.1683C27.8576 13.3323 28.2119 14.5976 29.0723 15.458C29.9326 16.3183 31.1473 16.6726 32.362 16.4196H32.4126V16.4702C32.8681 17.28 33.2223 18.1909 33.526 19.1526V19.2032C33.526 19.2032 33.526 19.2032 33.4754 19.2538C32.4632 19.9117 31.9065 21.0251 31.9065 22.2398C31.9065 23.4545 32.5138 24.5679 33.526 25.2765C33.526 25.2765 33.526 25.3271 33.526 25.3777C33.3236 26.4405 32.9187 27.3515 32.4632 28.1107Z" fill="#6D777E"/>
</svg>
