<svg width="79" height="142" viewBox="0 0 79 142" fill="none" xmlns="http://www.w3.org/2000/svg">
<path d="M63.2541 31.9004C63.2541 49.1724 49.2524 63.1741 31.9804 63.1741C14.7084 63.1741 0.706696 49.1724 0.706696 31.9004C0.706696 14.6284 14.7084 0.626709 31.9804 0.626709C49.2524 0.626709 63.2541 14.6284 63.2541 31.9004Z" fill="#5EC20A"/>
<path d="M20.8173 24.8407V34.1107C20.8173 35.1427 20.4993 35.9707 19.8633 36.5947C19.2273 37.2067 18.3873 37.5127 17.3433 37.5127C16.2873 37.5127 15.4413 37.2007 14.8053 36.5767C14.1693 35.9407 13.8513 35.0767 13.8513 33.9847H15.4893C15.5013 34.5967 15.6573 35.0947 15.9573 35.4787C16.2693 35.8627 16.7313 36.0547 17.3433 36.0547C17.9553 36.0547 18.4113 35.8747 18.7113 35.5147C19.0113 35.1427 19.1613 34.6747 19.1613 34.1107V24.8407H20.8173ZM22.1722 32.4187C22.1722 31.4107 22.3762 30.5287 22.7842 29.7727C23.1922 29.0047 23.7502 28.4107 24.4582 27.9907C25.1782 27.5707 25.9762 27.3607 26.8522 27.3607C27.7162 27.3607 28.4662 27.5467 29.1022 27.9187C29.7382 28.2907 30.2122 28.7587 30.5242 29.3227V27.5227H32.1802V37.3867H30.5242V35.5507C30.2002 36.1267 29.7142 36.6067 29.0662 36.9907C28.4302 37.3627 27.6862 37.5487 26.8342 37.5487C25.9582 37.5487 25.1662 37.3327 24.4582 36.9007C23.7502 36.4687 23.1922 35.8627 22.7842 35.0827C22.3762 34.3027 22.1722 33.4147 22.1722 32.4187ZM30.5242 32.4367C30.5242 31.6927 30.3742 31.0447 30.0742 30.4927C29.7742 29.9407 29.3662 29.5207 28.8502 29.2327C28.3462 28.9327 27.7882 28.7827 27.1762 28.7827C26.5642 28.7827 26.0062 28.9267 25.5022 29.2147C24.9982 29.5027 24.5962 29.9227 24.2962 30.4747C23.9962 31.0267 23.8462 31.6747 23.8462 32.4187C23.8462 33.1747 23.9962 33.8347 24.2962 34.3987C24.5962 34.9507 24.9982 35.3767 25.5022 35.6767C26.0062 35.9647 26.5642 36.1087 27.1762 36.1087C27.7882 36.1087 28.3462 35.9647 28.8502 35.6767C29.3662 35.3767 29.7742 34.9507 30.0742 34.3987C30.3742 33.8347 30.5242 33.1807 30.5242 32.4367ZM45.5503 27.3427C46.3183 27.3427 47.0023 27.5047 47.6023 27.8287C48.2023 28.1407 48.6763 28.6147 49.0243 29.2507C49.3723 29.8867 49.5463 30.6607 49.5463 31.5727V37.3867H47.9263V31.8067C47.9263 30.8227 47.6803 30.0727 47.1883 29.5567C46.7083 29.0287 46.0543 28.7647 45.2263 28.7647C44.3743 28.7647 43.6963 29.0407 43.1923 29.5927C42.6883 30.1327 42.4363 30.9187 42.4363 31.9507V37.3867H40.8163V31.8067C40.8163 30.8227 40.5703 30.0727 40.0783 29.5567C39.5983 29.0287 38.9443 28.7647 38.1163 28.7647C37.2643 28.7647 36.5863 29.0407 36.0823 29.5927C35.5783 30.1327 35.3263 30.9187 35.3263 31.9507V37.3867H33.6883V27.5227H35.3263V28.9447C35.6503 28.4287 36.0823 28.0327 36.6223 27.7567C37.1743 27.4807 37.7803 27.3427 38.4403 27.3427C39.2683 27.3427 40.0003 27.5287 40.6363 27.9007C41.2723 28.2727 41.7463 28.8187 42.0583 29.5387C42.3343 28.8427 42.7903 28.3027 43.4263 27.9187C44.0623 27.5347 44.7703 27.3427 45.5503 27.3427Z" fill="white"/>
<path d="M33.8582 51.2991C28.8722 51.2991 24.8582 55.3131 24.8582 60.2991L24.8269 87.9553C24.0923 86.8044 23.3699 85.6409 22.2957 84.6116C20.9813 83.3521 19.019 82.2991 16.8269 82.2991C14.2309 82.2991 12.0044 83.5494 10.7019 85.1428C9.3995 86.7362 8.82693 88.5339 8.82693 90.2991C8.82693 108.132 19.968 121.411 31.8269 133.455V138.299C31.8271 139.87 33.2562 141.299 34.8269 141.299H68.8269C70.3977 141.299 71.8268 139.87 71.8269 138.299V128.33C76.4077 123.332 78.8582 116.717 78.8582 110.299L78.8582 97.2991C78.8582 92.1488 73.9611 88.2991 69.8582 88.2991C68.6457 88.2991 67.4992 88.5122 66.3582 88.9866C65.3508 85.227 62.1743 82.2991 58.2644 82.2991C56.7623 82.2991 55.6633 82.5144 54.4519 83.0178C53.2358 78.6542 50.0625 76.2991 45.8582 76.2991C44.7659 76.2991 43.7822 76.4436 42.8269 76.7991C42.8299 73.9667 42.8582 60.2991 42.8582 60.2991C42.8582 55.3131 38.8442 51.2991 33.8582 51.2991ZM33.8582 57.2991C35.5202 57.2991 36.8582 58.6371 36.8582 60.2991C36.8582 60.2991 36.814 78.2573 36.8269 83.2991C36.8269 84.8404 38.0381 86.2991 39.8582 86.2991C42.7917 86.2991 42.9827 82.2991 45.8582 82.2991C48.1974 82.2991 48.8582 84.2699 48.8582 86.2991V91.2991C48.8582 93.1266 50.2578 94.2991 51.8582 94.2991C53.3663 94.2991 54.8634 92.8137 54.8582 91.2991C54.8582 89.6371 56.1962 88.2991 57.8582 88.2991C59.5202 88.2991 60.8582 89.6371 60.8582 91.2991C60.8582 91.2991 60.8329 97.2583 60.8269 97.2991H60.8582C60.8582 98.9559 62.2013 100.299 63.8582 100.299C65.515 100.299 66.8582 98.9559 66.8582 97.2991C67.1819 95.6298 68.4851 94.2991 69.8582 94.2991C71.8633 94.2991 72.8582 95.9168 72.8582 97.2991L72.8582 110.299C72.8582 115.906 70.6975 121.306 66.7332 125.143C66.1596 125.702 65.8249 126.498 65.8269 127.299V135.299H37.8269V132.299C37.8288 131.513 37.5068 130.731 36.9519 130.174C24.9721 118.102 14.8269 106.015 14.8269 90.2991C14.8269 90.049 15.029 89.3268 15.3582 88.9241C15.6874 88.5213 15.9495 88.2991 16.8269 88.2991C17.341 88.2991 17.5569 88.3659 18.1394 88.9241C18.722 89.4823 19.4663 90.5346 20.2957 91.8616L25.2957 99.8616C25.9826 100.941 27.4081 101.491 28.6394 101.143C29.8708 100.795 30.8064 99.5786 30.8269 98.2991L30.8582 60.2991C30.8582 58.6371 32.1962 57.2991 33.8582 57.2991Z" fill="white"/>
</svg>
