<svg width="78" height="141" viewBox="0 0 78 141" fill="none" xmlns="http://www.w3.org/2000/svg">
<circle cx="31" cy="31" r="31" fill="#FF7809"/>
<path d="M31.0444 22.9635C26.7655 22.9635 23.271 26.4579 23.271 30.7368C23.271 35.0157 26.7655 38.5102 31.0444 38.5102C35.3233 38.5102 38.8177 35.0157 38.8177 30.7368C38.8177 26.4579 35.3233 22.9635 31.0444 22.9635ZM31.0444 35.5862C28.3344 35.5862 26.1949 33.3755 26.1949 30.7368C26.1949 28.0268 28.4057 25.8874 31.0444 25.8874C33.7543 25.8874 35.8938 28.0982 35.8938 30.7368C35.8938 33.4468 33.7543 35.5862 31.0444 35.5862Z" fill="white"/>
<path d="M48.5878 32.5198C47.946 32.0919 47.5894 31.4501 47.5894 30.7369C47.5894 30.0238 47.946 29.3106 48.5878 28.954C49.6576 28.2409 50.1568 26.8859 49.8002 25.6735C49.4436 24.2472 48.8731 22.8209 47.946 21.1807C47.3042 20.0396 46.0205 19.4691 44.7368 19.6831C43.9523 19.8257 43.2392 19.6117 42.74 19.1125C42.2408 18.6133 42.0268 17.9002 42.0981 17.1157C42.3834 15.9034 41.7416 14.5484 40.6005 13.9065C39.1742 13.0508 37.6766 12.4802 36.1077 12.0523C34.8953 11.6958 33.5403 12.195 32.8272 13.2647V13.336C32.4706 13.9778 31.8288 14.3344 31.1156 14.3344C30.4025 14.3344 29.6893 13.9778 29.3327 13.336C28.6196 12.2663 27.2646 11.7671 26.0522 12.1237C24.6259 12.4802 23.1996 13.0508 21.5594 13.9778C20.4183 14.6197 19.8478 15.9034 20.0618 17.187C20.2044 17.9715 19.9905 18.6846 19.4912 19.1839C18.992 19.6831 18.2789 19.897 17.4944 19.8257C16.2821 19.5404 14.9271 20.1823 14.2852 21.3233C13.4295 22.7496 12.8589 24.2472 12.431 25.8162C12.0745 27.0285 12.5737 28.3835 13.6434 29.0967C14.2852 29.5246 14.6418 30.1664 14.6418 30.8795C14.6418 31.5927 14.2852 32.3058 13.6434 32.6624C12.5737 33.3756 12.0745 34.7306 12.431 35.9429C12.7876 37.3692 13.3581 38.7955 14.2852 40.4358C14.9271 41.5768 16.2107 42.1473 17.4944 41.9334C18.2789 41.7908 18.992 42.0047 19.4912 42.5039C19.9905 43.0031 20.2044 43.7163 20.1331 44.5007C19.8478 45.7131 20.4897 47.0681 21.6307 47.7099C23.057 48.5657 24.5546 49.1362 26.1236 49.5641C26.4088 49.6354 26.6941 49.6354 26.908 49.6354C27.9064 49.6354 28.8335 49.1362 29.4041 48.2804C29.8319 47.6386 30.4738 47.282 31.1869 47.282C31.9001 47.282 32.6132 47.6386 32.9698 48.2804C33.683 49.3502 35.0379 49.8494 36.2503 49.4928C37.6766 49.1362 39.1029 48.5657 40.7432 47.6386C41.8842 46.9968 42.4547 45.7131 42.2408 44.4294C42.0981 43.6449 42.3121 42.9318 42.8113 42.4326C43.3105 41.9334 44.0237 41.7194 44.8081 41.7908C46.0205 42.076 47.3755 41.4342 48.0173 40.2931C48.8731 38.8668 49.4436 37.3692 49.8715 35.8003C50.1568 34.6592 49.6576 33.3043 48.5878 32.5198ZM45.3786 38.8668C45.3073 38.9381 45.3073 38.9381 45.3073 38.9381C43.6671 38.5816 41.8842 39.0808 40.6718 40.2931C39.4595 41.5055 38.9603 43.2171 39.3169 44.9286V44.9999H39.2455C38.1045 45.6418 36.8208 46.141 35.4658 46.5689H35.3945C35.3945 46.5689 35.3945 46.5689 35.3232 46.5689L35.2519 46.4976C34.2535 45.1426 32.6846 44.2868 30.973 44.2868C29.2614 44.2868 27.6925 45.1426 26.6941 46.5689C26.6941 46.5689 26.6228 46.5689 26.5514 46.5689C25.1965 46.2123 23.9128 45.6418 22.7717 44.9999C22.7004 44.9286 22.7004 44.9286 22.7004 44.9286C23.057 43.2884 22.5578 41.5055 21.3454 40.2931C20.4183 39.366 19.0634 38.7955 17.7797 38.7955C17.3518 38.7955 16.9952 38.8668 16.7813 38.9381H16.71V38.8668C16.0681 37.7258 15.5689 36.4421 15.141 35.0871V35.0158C15.141 35.0158 15.141 35.0158 15.2123 34.9445C16.6386 33.9461 17.4944 32.4485 17.4944 30.6656C17.4944 28.8827 16.6386 27.3851 15.2123 26.3867C15.2123 26.3867 15.2123 26.3154 15.2123 26.2441C15.5689 24.8178 16.1394 23.6054 16.71 22.5357C16.7813 22.4643 16.7813 22.4644 16.7813 22.4644C18.4215 22.8209 20.2044 22.3217 21.4168 21.1094C22.6291 19.897 23.1283 18.1854 22.7717 16.4739V16.4026H22.8431C23.9841 15.7607 25.1965 15.2615 26.6228 14.8336C26.6941 14.8336 26.7654 14.8336 26.7654 14.8336C27.7638 16.2599 29.2614 17.1157 31.0443 17.1157C32.7559 17.1157 34.3248 16.2599 35.3232 14.8336C35.3232 14.8336 35.3945 14.8336 35.4658 14.8336C36.8921 15.1902 38.1045 15.7607 39.1742 16.3312C39.2455 16.4026 39.2455 16.4026 39.2455 16.4026C38.889 18.0428 39.3882 19.8257 40.6005 21.038C41.8129 22.2504 43.5245 22.7496 45.236 22.393H45.3073V22.4644C45.9492 23.6054 46.4484 24.8891 46.8763 26.2441V26.3154C46.8763 26.3154 46.8763 26.3154 46.8049 26.3867C45.3786 27.3138 44.5942 28.8827 44.5942 30.5943C44.5942 32.3058 45.45 33.8748 46.8763 34.8732C46.8763 34.8732 46.8763 34.9445 46.8763 35.0158C46.591 36.5134 46.0205 37.7971 45.3786 38.8668Z" fill="white"/>
<path d="M33 50.6724C28.014 50.6724 24 54.6864 24 59.6724L23.9687 87.3286C23.2341 86.1777 22.5118 85.0142 21.4375 83.9849C20.1231 82.7254 18.1609 81.6724 15.9687 81.6724C13.3727 81.6724 11.1462 82.9227 9.84375 84.5161C8.54132 86.1095 7.96875 87.9072 7.96875 89.6724C7.96875 107.506 19.1098 120.785 30.9687 132.829V137.672C30.9689 139.243 32.398 140.672 33.9687 140.672H67.9687C69.5395 140.672 70.9686 139.243 70.9688 137.672V127.704C75.5495 122.705 78 116.09 78 109.672L78 96.6724C78 91.5221 73.1029 87.6724 69 87.6724C67.7875 87.6724 66.641 87.8855 65.5 88.3599C64.4926 84.6003 61.3161 81.6724 57.4062 81.6724C55.9041 81.6724 54.8051 81.8877 53.5937 82.3911C52.3776 78.0274 49.2043 75.6724 45 75.6724C43.9078 75.6724 42.924 75.8169 41.9688 76.1724C41.9717 73.34 42 59.6724 42 59.6724C42 54.6864 37.986 50.6724 33 50.6724ZM33 56.6724C34.662 56.6724 36 58.0104 36 59.6724C36 59.6724 35.9558 77.6306 35.9688 82.6724C35.9688 84.2137 37.1799 85.6724 39 85.6724C41.9335 85.6724 42.1245 81.6724 45 81.6724C47.3392 81.6724 48 83.6432 48 85.6724V90.6724C48 92.4999 49.3997 93.6724 51 93.6724C52.5081 93.6724 54.0052 92.187 54 90.6724C54 89.0104 55.338 87.6724 57 87.6724C58.662 87.6724 60 89.0104 60 90.6724C60 90.6724 59.9748 96.6316 59.9687 96.6724H60C60 98.3292 61.3431 99.6724 63 99.6724C64.6569 99.6724 66 98.3292 66 96.6724C66.3237 95.0031 67.6269 93.6724 69 93.6724C71.0052 93.6724 72 95.2901 72 96.6724L72 109.672C72 115.28 69.8393 120.679 65.875 124.516C65.3015 125.075 64.9667 125.872 64.9688 126.672V134.672H36.9687V131.672C36.9707 130.886 36.6486 130.104 36.0937 129.547C24.1139 117.476 13.9687 105.388 13.9687 89.6724C13.9687 89.4223 14.1708 88.7001 14.5 88.2974C14.8292 87.8946 15.0914 87.6724 15.9687 87.6724C16.4828 87.6724 16.6987 87.7392 17.2812 88.2974C17.8638 88.8556 18.6081 89.9079 19.4375 91.2349L24.4375 99.2349C25.1244 100.314 26.5499 100.864 27.7812 100.516C29.0126 100.168 29.9482 98.9519 29.9687 97.6724L30 59.6724C30 58.0104 31.338 56.6724 33 56.6724Z" fill="white"/>
</svg>
