<svg width="48" height="48" viewBox="0 0 48 48" fill="none" xmlns="http://www.w3.org/2000/svg">
<path d="M23.9876 22.2182C20.5104 22.2182 17.7679 24.1296 17.7679 26.5906C17.7679 29.0515 20.4859 30.9629 23.9876 30.9629C27.4892 30.9629 30.2073 29.0515 30.2073 26.5906C30.2073 24.1296 27.4648 22.2182 23.9876 22.2182ZM23.9876 29.4099C21.4899 29.4099 19.3595 28.1197 19.3595 26.5667C19.3595 25.0375 21.4899 23.7235 23.9876 23.7235C26.4853 23.7235 28.6157 25.0137 28.6157 26.5667C28.6157 28.1197 26.5098 29.4099 23.9876 29.4099Z" fill="white"/>
<path d="M22.1021 25.4676C21.6613 25.4676 21.3185 25.8021 21.3185 26.2322V26.9012C21.3185 27.3312 21.6613 27.6657 22.1021 27.6657C22.5429 27.6657 22.8857 27.3312 22.8857 26.9012V26.2322C22.9102 25.826 22.5429 25.4676 22.1021 25.4676Z" fill="white"/>
<path d="M25.8731 25.4676C25.4323 25.4676 25.0895 25.8021 25.0895 26.2322V26.9012C25.0895 27.3312 25.4323 27.6657 25.8731 27.6657C26.3139 27.6657 26.6567 27.3312 26.6567 26.9012V26.2322C26.6812 25.826 26.3139 25.4676 25.8731 25.4676Z" fill="white"/>
<path d="M41.1287 13.9753C40.7859 13.832 37.9209 12.6373 37.3577 12.2312C35.3987 10.7737 33.6602 10.2959 32.2399 10.7976C31.4563 11.0843 30.7952 11.6339 30.3299 12.4701L30.232 12.6851L30.0116 12.5896C27.7588 11.4905 24.0367 11.3233 23.9878 11.2994C23.596 11.3233 20.1433 11.5144 18.0129 12.5657L17.7925 12.6612L17.6701 12.4462C17.3518 11.8728 16.7396 11.1321 15.7601 10.7737C14.3399 10.2959 12.6013 10.7737 10.6423 12.2312C10.0791 12.6612 7.21411 13.832 6.87129 13.9753C5.98975 14.3098 5.42655 15.1699 5.50001 16.1018C5.64693 18.0848 6.45501 21.7404 9.93217 23.9385C10.275 24.1535 10.6423 24.2491 11.0586 24.2491C11.5238 24.2491 12.0136 24.0818 12.4054 23.7712L12.7727 23.4845L12.8217 23.9385C12.9931 25.7065 13.6052 29.0276 15.9315 31.3929C17.6946 33.1849 20.0943 34.0928 23.0817 34.0928H24.7224C27.6853 34.0928 30.1095 33.1849 31.8971 31.3929C34.2723 29.0276 34.958 25.6826 35.1539 23.8907L35.2029 23.4367L35.5702 23.7235C35.962 24.0341 36.4517 24.2252 36.9414 24.2252C37.3332 24.2252 37.725 24.1057 38.0678 23.9146C41.5695 21.7165 42.3531 18.0609 42.5 16.0779C42.5735 15.1938 42.0103 14.3337 41.1287 13.9753ZM12.7482 21.2147V21.3103L11.4993 22.5527C11.3769 22.6483 11.23 22.72 11.0831 22.72C10.9851 22.72 10.8872 22.6961 10.8137 22.6483C7.89975 20.8086 7.21411 17.6787 7.09167 15.9823C7.06718 15.7434 7.21411 15.5283 7.45898 15.4328C7.8018 15.2655 10.9361 13.9514 11.5973 13.4736C13.1155 12.3506 14.3399 11.9445 15.2214 12.2551C15.6866 12.4223 16.0539 12.7568 16.3723 13.3302L16.4702 13.5214L16.2988 13.6408C15.956 13.9036 15.6622 14.1665 15.4173 14.4293C13.7522 16.1018 12.8706 18.3954 12.7482 21.2147ZM33.6602 22.4333V22.5049C33.6602 22.6961 33.6602 27.4746 30.7707 30.3417C29.277 31.823 27.2445 32.5637 24.7224 32.5637C24.6734 32.5637 24.5999 32.5637 24.502 32.5637H24.4775C24.2571 32.5637 23.7429 32.5398 23.6449 32.5637H23.596C23.4246 32.5637 23.2532 32.5637 23.1062 32.5637C20.5841 32.5637 18.5761 31.823 17.1069 30.3417C14.3154 27.5463 14.3399 23.0306 14.3399 22.5049V22.4333C14.2174 19.5184 14.952 17.2008 16.5437 15.4806C19.0659 12.7807 23.5225 12.8285 24.0123 12.8524C24.2326 12.8524 25.3835 12.8524 26.8283 13.1869C28.8117 13.6169 30.3789 14.4054 31.4563 15.5044C33.048 17.1052 33.7826 19.4467 33.6602 22.4333ZM37.2108 22.6244C37.1373 22.6722 37.0394 22.6961 36.9414 22.6961C36.7945 22.6961 36.6476 22.6244 36.5252 22.5288L35.2273 21.2625V21.167C35.1294 18.3715 34.2234 16.0779 32.5827 14.4054C32.3379 14.1665 32.0685 13.9036 31.7257 13.6408L31.5788 13.5214L31.6767 13.3541C31.8726 12.9718 32.2399 12.4701 32.8031 12.279C33.6847 11.9684 34.9335 12.3984 36.4272 13.4975C37.1128 13.9992 40.541 15.4328 40.5655 15.4567C40.7859 15.5522 40.9328 15.7673 40.9328 16.0062C40.7859 17.6787 40.1248 20.7847 37.2108 22.6244Z" fill="white"/>
<path fill-rule="evenodd" clip-rule="evenodd" d="M12.6544 32.8911C10.788 29.3634 10.7474 25.078 12.7627 22.2869L13.9873 23.1355C12.3776 25.3648 12.3057 29.0386 13.9862 32.215C15.6397 35.3403 18.9554 37.8949 24 37.8949C29.0733 37.8949 32.234 35.5903 33.8115 32.6266C35.4122 29.6196 35.4101 25.8837 34.0114 23.0291L35.3636 22.3933C36.9649 25.6612 36.9628 29.8845 35.1416 33.306C33.2973 36.7708 29.6142 39.3643 24 39.3643C18.3571 39.3643 14.5478 36.4698 12.6544 32.8911Z" fill="white"/>
<path d="M18.8943 19.0644H19.7024C20.1431 19.0644 20.486 18.7299 20.486 18.2999C20.486 17.8698 20.1431 17.5353 19.7024 17.5353H18.8943C18.4535 17.5353 18.1107 17.8698 18.1107 18.2999C18.0862 18.706 18.4535 19.0644 18.8943 19.0644Z" fill="white"/>
<path d="M28.2973 19.0644H29.1054C29.5462 19.0644 29.889 18.7299 29.889 18.2999C29.889 17.8698 29.5462 17.5353 29.1054 17.5353H28.2973C27.8566 17.5353 27.5137 17.8698 27.5137 18.2999C27.4892 18.706 27.8566 19.0644 28.2973 19.0644Z" fill="white"/>
</svg>
