<svg width="48" height="48" viewBox="0 0 48 48" fill="none" xmlns="http://www.w3.org/2000/svg">
<path d="M32.815 10.6111L32.6696 10.5256H32.4953C29.1818 10.6965 26.1299 12.6895 24.6476 15.5937C24.5022 15.5937 24.3569 15.5937 24.2406 15.5937C24.0663 15.5937 23.8919 15.5937 23.7465 15.6222C22.2642 12.6895 19.2123 10.6965 15.8988 10.5256H15.7244L15.5791 10.6111C11.9169 12.6326 9.76601 17.4444 10.202 22.5979C10.2892 23.509 10.4345 24.4201 10.667 25.3028H10.6961C10.6089 25.6729 10.5798 26.0715 10.5798 26.4702C10.5798 29.8014 12.411 32.4778 16.1314 34.6702C17.5846 36.5494 20.5203 38.6848 24.2406 38.6848C27.961 38.6848 30.8967 36.5494 32.3499 34.6702C36.0703 32.5063 37.9014 29.8014 37.9014 26.4702C37.9014 26.0146 37.8724 25.559 37.7852 25.1035C37.9886 24.2778 38.134 23.4521 38.1921 22.5979C38.6571 17.4444 36.4772 12.6326 32.815 10.6111ZM30.8967 11.9493C30.0247 13.1166 29.4724 14.7111 29.4143 16.4194C28.3098 16.0493 27.1472 15.8215 25.9264 15.7076C27.0019 13.8284 28.833 12.4902 30.8967 11.9493ZM22.4676 15.6791C21.2469 15.793 20.0552 16.0777 18.9217 16.4479C18.8635 14.7111 18.3113 13.0882 17.4102 11.9208C19.532 12.4618 21.3632 13.8284 22.4676 15.6791ZM36.6038 21.8454C36.4443 21.5706 36.0781 21.4919 35.8096 21.6673C35.5516 21.8358 35.4821 22.1757 35.6358 22.4395C36.3711 23.7022 36.7388 25.0524 36.7388 26.4702C36.7388 29.4028 35.0821 31.766 31.6524 33.7591L31.5361 33.816L31.478 33.9014C30.1119 35.7237 27.3507 37.5744 24.2406 37.5744C21.1306 37.5744 18.3694 35.7521 17.0033 33.9299L16.9452 33.8445L16.8289 33.7875C13.3992 31.7945 11.7425 29.4028 11.7425 26.4702C11.7425 25.0553 12.1086 23.7078 12.8613 22.4474C13.021 22.1798 12.9526 21.8317 12.6893 21.6597C12.4243 21.4867 12.0645 21.5587 11.9065 21.8295C11.7169 22.1546 11.5488 22.4838 11.3937 22.8257C11.3937 22.7118 11.3646 22.5979 11.3646 22.5125C10.9577 17.9854 12.7307 13.7715 15.7535 11.8354C17.0033 12.8319 17.7881 14.768 17.759 16.9034C17.5741 16.9789 17.3811 17.0624 17.1885 17.1538C16.902 17.29 16.8044 17.6338 16.9563 17.908C17.111 18.1871 17.4661 18.2903 17.7581 18.1525C19.7018 17.2352 21.9224 16.7326 24.2406 16.7326C26.5345 16.7326 28.7549 17.2122 30.7222 18.1492C31.0134 18.288 31.3688 18.1834 31.52 17.9028C31.6724 17.6201 31.5582 17.2686 31.2646 17.1288C31.0354 17.0195 30.8062 16.9143 30.5769 16.818C30.5769 14.7111 31.3326 12.775 32.6115 11.8069C35.6634 13.7145 37.4364 17.9569 37.0585 22.5125C37.0585 22.5694 37.0585 22.6264 37.0295 22.6833C36.9049 22.387 36.7586 22.1121 36.6038 21.8454Z" fill="white"/>
<path fill-rule="evenodd" clip-rule="evenodd" d="M32.6696 10.5256L32.815 10.6111C36.4772 12.6326 38.6571 17.4444 38.1921 22.5979C38.134 23.4521 37.9886 24.2778 37.7852 25.1035C37.8724 25.559 37.9014 26.0146 37.9014 26.4702C37.9014 29.8014 36.0703 32.5063 32.3499 34.6702C30.8967 36.5494 27.961 38.6848 24.2406 38.6848C20.5203 38.6848 17.5846 36.5494 16.1314 34.6702C12.411 32.4778 10.5798 29.8014 10.5798 26.4702C10.5798 26.1065 10.604 25.7428 10.6745 25.4008C10.6813 25.3679 10.6885 25.3352 10.6961 25.3028H10.667C10.6664 25.3005 10.6658 25.2981 10.6652 25.2958C10.4338 24.4153 10.289 23.5066 10.202 22.5979C9.76601 17.4444 11.9169 12.6326 15.5791 10.6111L15.7244 10.5256H15.8988C19.2123 10.6965 22.2642 12.6895 23.7465 15.6222C23.8919 15.5937 24.0663 15.5937 24.2406 15.5937H24.6476C26.1299 12.6895 29.1818 10.6965 32.4953 10.5256H32.6696ZM24.586 15.4958C26.0943 12.5901 29.1605 10.5995 32.49 10.4278L32.4953 10.4276L32.6973 10.4277L32.8652 10.5264C36.5698 12.5721 38.7588 17.426 38.2918 22.6055C38.2336 23.4589 38.0892 24.2834 37.8874 25.1061C37.973 25.5624 38.0014 26.0175 38.0014 26.4702C38.0014 29.8406 36.1478 32.5702 32.4178 34.7446C30.9468 36.6377 27.9901 38.7828 24.2406 38.7828C20.4911 38.7828 17.5342 36.6375 16.0633 34.7444C12.334 32.542 10.4798 29.841 10.4798 26.4702C10.4798 26.0968 10.505 25.7201 10.58 25.3644L10.5702 25.3273C10.3361 24.4385 10.19 23.5221 10.1024 22.6071L10.1023 22.606C9.66419 17.427 11.8237 12.5724 15.5288 10.5264L15.6967 10.4277H15.9041C19.2298 10.5992 22.2929 12.5856 23.803 15.5138C23.9399 15.4958 24.0916 15.4958 24.2343 15.4958H24.586ZM31.5361 33.816L31.6524 33.7591C35.0821 31.766 36.7388 29.4028 36.7388 26.4702C36.7388 25.0524 36.3711 23.7022 35.6358 22.4395C35.4821 22.1757 35.5516 21.8358 35.8096 21.6673C36.0781 21.4919 36.4443 21.5706 36.6038 21.8454C36.7301 22.063 36.8507 22.2861 36.9585 22.5217C36.9829 22.5749 37.0065 22.6288 37.0295 22.6833C37.0585 22.6264 37.0585 22.5694 37.0585 22.5125C37.0588 22.5092 37.0591 22.506 37.0594 22.5027C37.4338 17.9508 35.6612 13.7132 32.6115 11.8069C31.3326 12.775 30.5769 14.7111 30.5769 16.818C30.8062 16.9143 31.0354 17.0195 31.2646 17.1288C31.5582 17.2686 31.6724 17.6201 31.52 17.9028C31.3688 18.1834 31.0134 18.288 30.7222 18.1492C28.7549 17.2122 26.5345 16.7326 24.2406 16.7326C21.9224 16.7326 19.7018 17.2352 17.7581 18.1525C17.4661 18.2903 17.111 18.1871 16.9563 17.908C16.8044 17.6338 16.902 17.29 17.1885 17.1538C17.3811 17.0624 17.5741 16.9789 17.759 16.9034C17.7881 14.768 17.0033 12.8319 15.7535 11.8354C12.7307 13.7715 10.9577 17.9854 11.3646 22.5125C11.3646 22.5471 11.3694 22.5864 11.3751 22.6285C11.3759 22.6346 11.3767 22.6408 11.3776 22.647C11.3853 22.7036 11.3937 22.7647 11.3937 22.8257C11.4214 22.7647 11.4495 22.704 11.478 22.6438C11.6095 22.3664 11.7507 22.0965 11.9065 21.8295C12.0645 21.5587 12.4243 21.4867 12.6893 21.6597C12.9526 21.8317 13.021 22.1798 12.8613 22.4474C12.1086 23.7078 11.7425 25.0553 11.7425 26.4702C11.7425 29.4028 13.3992 31.7945 16.8289 33.7875L16.9452 33.8445L17.0033 33.9299C18.3694 35.7521 21.1306 37.5744 24.2406 37.5744C27.3507 37.5744 30.1119 35.7237 31.478 33.9014L31.5361 33.816ZM17.0853 33.8737L17.0137 33.7685L16.8769 33.7015C13.4684 31.7199 11.8425 29.3562 11.8425 26.4702C11.8425 25.0727 12.2039 23.7422 12.9476 22.4968C13.132 22.188 13.0554 21.7812 12.7447 21.5782C12.4347 21.3757 12.0083 21.4577 11.8197 21.7809C11.6906 22.0021 11.5715 22.2252 11.4597 22.4526C11.0757 18.0014 12.8116 13.8786 15.7467 11.9572C16.9213 12.9323 17.6719 14.7809 17.6597 16.8381C17.4921 16.9074 17.3184 16.9833 17.1449 17.0657C16.8028 17.2282 16.6916 17.6357 16.8684 17.9548C17.0498 18.2821 17.4639 18.4001 17.8015 18.2408C19.7313 17.33 21.937 16.8306 24.2406 16.8306C26.5204 16.8306 28.7257 17.3072 30.6785 18.2373C31.0157 18.398 31.4308 18.2783 31.6085 17.9486C31.7867 17.6177 31.6536 17.2052 31.3084 17.0407C31.0985 16.9407 30.8881 16.8437 30.6772 16.7538C30.6922 14.7207 31.4175 12.874 32.6174 11.9272C35.5519 13.8016 37.2844 17.8894 36.973 22.32C36.8843 22.1395 36.789 21.9663 36.6908 21.797C36.5015 21.471 36.0692 21.38 35.7541 21.5858C35.4492 21.7849 35.3711 22.1828 35.5489 22.4881C36.2758 23.7362 36.6388 25.0698 36.6388 26.4702C36.6388 29.3559 35.0133 31.6912 31.6044 33.673L31.4676 33.74L31.396 33.8452C30.0442 35.6473 27.3114 37.4764 24.2406 37.4764C21.1693 37.4764 18.4367 35.6752 17.0853 33.8737ZM30.8967 11.9493C30.8453 11.9627 30.794 11.9767 30.7429 11.9912C28.7764 12.5476 27.0354 13.8305 25.9807 15.6143C25.9624 15.6453 25.9443 15.6764 25.9264 15.7076C25.9628 15.711 25.999 15.7145 26.0352 15.7181C27.18 15.8316 28.2734 16.0466 29.3154 16.3867C29.3484 16.3975 29.3814 16.4084 29.4143 16.4194C29.4155 16.3853 29.4168 16.3513 29.4184 16.3173C29.4918 14.7084 30.0029 13.2066 30.8046 12.0757C30.8349 12.0331 30.8656 11.9909 30.8967 11.9493ZM30.6533 12.1195C28.7728 12.6821 27.1123 13.9194 26.0901 15.6251C27.215 15.7394 28.2917 15.9517 29.3198 16.2849C29.3964 14.7165 29.8843 13.2479 30.6533 12.1195ZM22.4676 15.6791C22.4491 15.648 22.4303 15.617 22.4112 15.5861C21.3291 13.8276 19.5859 12.5193 17.5658 11.9621C17.5141 11.9478 17.4623 11.9341 17.4102 11.9208C17.4423 11.9623 17.474 12.0045 17.5051 12.0472C18.3328 13.1804 18.8445 14.7093 18.9177 16.346C18.9192 16.3799 18.9205 16.4139 18.9217 16.4479C18.9546 16.4371 18.9876 16.4265 19.0206 16.4159C20.0904 16.0723 21.211 15.8066 22.358 15.6898C22.3946 15.6861 22.4311 15.6825 22.4676 15.6791ZM22.3012 15.5972C21.2519 13.9144 19.5877 12.6543 17.6581 12.0903C18.4517 13.2234 18.9402 14.7192 19.0163 16.3142C20.0686 15.9778 21.1713 15.7162 22.3012 15.5972Z" fill="white"/>
<path d="M30.3353 29.0801C30.0521 29.2265 29.9526 29.5712 30.0312 29.8753C30.0866 30.0891 30.112 30.3113 30.112 30.5417C30.112 31.9938 28.9203 33.1612 27.4379 33.1612C26.0137 33.1612 24.8511 32.0508 24.793 30.6841L27.5542 29.1466L27.4961 28.748C27.4961 28.6626 27.2054 26.9542 24.2698 26.9542C21.3342 26.9542 21.0435 28.6626 21.0435 28.748L20.9854 29.1466L23.6594 30.6271C23.6013 32.0223 22.4387 33.1612 20.9854 33.1612C19.503 33.1612 18.3114 31.9938 18.3114 30.5417C18.3114 30.3452 18.3359 30.1487 18.3807 29.9523C18.4492 29.6521 18.3243 29.3297 18.0404 29.1984V29.1984C17.7407 29.0598 17.3782 29.1854 17.2891 29.4981C17.1955 29.8268 17.1487 30.17 17.1487 30.5133C17.1487 32.4778 18.7183 34.1008 20.6947 34.2431C21.276 35.6098 22.6712 36.5209 24.2117 36.5209C25.7521 36.5209 27.1473 35.6098 27.7286 34.2431C29.705 34.1008 31.2746 32.4778 31.2746 30.5133C31.2746 30.1138 31.2097 29.727 31.0886 29.3529C30.9894 29.0465 30.6255 28.9301 30.3353 29.0801V29.0801ZM24.2407 28.0931C25.3452 28.0931 25.8684 28.3778 26.13 28.6056L24.2407 29.6591L22.3515 28.6056C22.6131 28.3778 23.1362 28.0931 24.2407 28.0931ZM24.1826 35.4105C23.2525 35.4105 22.3805 34.9265 21.9155 34.1577C22.8746 33.9015 23.6885 33.3035 24.1826 32.5063C24.7058 33.3035 25.5196 33.9015 26.4497 34.1577C25.9847 34.9265 25.1418 35.4105 24.1826 35.4105Z" fill="white"/>
<path d="M31.885 21.1174H31.0421C28.8912 21.1174 27.1473 22.8257 27.1473 24.9327V25.9292H29.9376C31.7978 25.9292 33.3092 24.4486 33.3092 22.6264V22.5125C33.3092 21.7438 32.6697 21.1174 31.885 21.1174ZM32.1465 22.6264C32.1465 23.8223 31.1583 24.7903 29.9376 24.7903H28.3099C28.3971 23.3952 29.5888 22.2563 31.0421 22.2563H31.885C32.0303 22.2563 32.1175 22.3702 32.1175 22.4841V22.6264H32.1465Z" fill="white"/>
<path d="M21.3923 25.9292V24.9327C21.3923 22.8257 19.6484 21.1174 17.4975 21.1174H16.6546C15.8699 21.1174 15.2595 21.7438 15.2595 22.4841V22.6264C15.2304 24.4486 16.7418 25.9292 18.602 25.9292H21.3923ZM16.3931 22.6264V22.5125C16.3931 22.3702 16.5093 22.2847 16.6256 22.2847H17.4685C18.9218 22.2847 20.1134 23.3952 20.2006 24.8188H18.573C17.3813 24.7903 16.3931 23.8223 16.3931 22.6264Z" fill="white"/>
<path fill-rule="evenodd" clip-rule="evenodd" d="M9.51677 31.9892C9.40801 31.6633 9.5988 31.3504 9.9429 31.2902L17.3191 29.9995L17.713 31.1794L10.3368 32.4701C9.99266 32.5303 9.62554 32.315 9.51677 31.9892V31.9892Z" fill="white"/>
<path fill-rule="evenodd" clip-rule="evenodd" d="M10.77 34.8098C10.6058 34.5043 10.7394 34.1691 11.0684 34.0612L17.9781 31.7943L18.5728 32.9007L11.6631 35.1676C11.3341 35.2755 10.9342 35.1153 10.77 34.8098V34.8098Z" fill="white"/>
<path fill-rule="evenodd" clip-rule="evenodd" d="M39.0457 32.4789C39.1545 32.1531 38.9637 31.8402 38.6196 31.78L31.2434 30.4892L30.8495 31.6691L38.2257 32.9599C38.5698 33.0201 38.9369 32.8048 39.0457 32.4789V32.4789Z" fill="white"/>
<path fill-rule="evenodd" clip-rule="evenodd" d="M37.7925 35.2996C37.9567 34.9941 37.8231 34.6589 37.4941 34.551L30.5844 32.2841L29.9897 33.3905L36.8994 35.6574C37.2284 35.7653 37.6283 35.6051 37.7925 35.2996V35.2996Z" fill="white"/>
</svg>
