<svg width="48" height="48" viewBox="0 0 48 48" fill="none" xmlns="http://www.w3.org/2000/svg">
<path d="M26.1964 21.0916C27.0699 21.0916 27.7729 20.3841 27.7729 19.5052C27.7729 18.6262 27.0699 17.9188 26.1964 17.9188C25.323 17.9188 24.62 18.6262 24.62 19.5052C24.62 20.3841 25.323 21.0916 26.1964 21.0916Z" fill="white"/>
<path d="M33.9722 20.1054C33.9722 20.5342 34.3131 20.8772 34.7392 20.8772C35.1652 20.8772 35.5061 20.5342 35.5061 20.1054C35.5061 19.6767 35.1652 19.3336 34.7392 19.3336C34.3131 19.3336 33.9722 19.6767 33.9722 20.1054Z" fill="white"/>
<path d="M36.9124 17.4686L36.8485 17.3614L36.8698 17.2327C36.955 16.8254 36.9976 16.5039 36.9976 16.1823C36.9976 15.3891 36.6568 14.5316 35.9963 13.6097C33.866 10.6727 29.0301 10.7156 27.5814 10.8014C23.1503 11.0586 19.6991 12.3235 16.4184 14.8531C14.1176 16.6325 12.1151 19.3551 10.4534 22.9138L10.3469 23.171H10.3256C10.0486 23.7927 9.32431 25.5292 9.17519 27.6087C8.89824 31.1031 10.3256 33.8043 13.2868 35.455C16.2693 37.1271 20.3595 38.199 23.6829 38.199C25.9411 38.199 27.7093 37.7274 28.8597 36.827C30.01 35.9052 30.5 34.576 30.2444 32.9682L30.2018 32.7324C30.1805 32.6252 30.1592 32.5394 30.1379 32.4537H30.1166L30.0527 32.1964C29.9248 31.7248 29.7757 31.2531 29.6266 30.8244L29.4988 30.4385L30.01 30.4814C30.1166 30.4814 30.2444 30.5028 30.3509 30.5028C31.693 30.5028 33.0138 30.0526 34.0577 29.238L34.3134 29.045L34.4625 29.3452C34.6968 29.8382 34.8886 30.3742 35.059 30.9101C35.0803 30.9316 35.0803 30.953 35.0803 30.9744C35.1016 30.9959 35.1016 31.0388 35.1229 31.0602C35.1442 31.1245 35.1868 31.1674 35.2294 31.2103C35.2507 31.2317 35.2507 31.2317 35.272 31.2531L35.2933 31.2746C35.3359 31.3175 35.3785 31.3389 35.4638 31.3818C35.4851 31.3818 35.5064 31.4032 35.5064 31.4032C35.5916 31.4461 35.6768 31.4675 35.762 31.4675H35.7833C35.8259 31.4675 35.8898 31.4675 35.9537 31.4461H35.975C35.9963 31.4461 35.9963 31.4246 36.0176 31.4246C36.0389 31.4246 36.0603 31.4032 36.0816 31.4032C36.1029 31.4032 36.1242 31.3818 36.1455 31.3603C36.1668 31.3389 36.1881 31.3389 36.2094 31.3175C36.2307 31.296 36.252 31.2746 36.2733 31.2746C36.2946 31.2531 36.2946 31.2531 36.3159 31.2317L36.3372 31.2103L36.3585 31.1888C37.9776 29.4524 38.8936 26.8155 38.8936 23.9857C38.8723 21.4989 38.1693 19.1836 36.9124 17.4686ZM27.901 35.6479C27.0062 36.3554 25.4724 36.6984 23.6616 36.6984C20.7004 36.6984 16.9723 35.798 13.9898 34.1473C9.00476 31.3818 10.8369 25.8079 11.5186 24.1786C11.5825 24.0286 11.6677 23.8571 11.7316 23.707L11.7529 23.6427C13.3081 20.2769 15.1828 17.7258 17.3131 16.0537C20.4022 13.674 23.4912 12.5378 27.6667 12.302C30.1166 12.152 33.4399 12.645 34.782 14.5101C35.0803 14.9389 35.2933 15.3248 35.3998 15.6892L35.5064 16.0108L35.1868 16.0322C35.1655 16.0322 35.1442 16.0322 35.1442 16.0322C35.1442 16.0322 35.1229 16.0322 35.1016 16.0322C35.0803 16.0322 35.0803 16.0322 35.059 16.0537H35.0377C33.9725 16.3109 32.9712 16.9326 32.0978 17.8544L31.8848 18.0903L31.693 17.833C30.4574 16.1823 28.4975 15.1961 26.4737 15.1961C22.8521 15.1961 19.8909 18.1546 19.8909 21.8205C19.8909 23.4069 20.4661 24.9504 21.5099 26.1724C21.6591 26.3439 21.8508 26.4296 22.0638 26.4296C22.2343 26.4296 22.426 26.3653 22.5538 26.2367C22.7029 26.108 22.7881 25.9151 22.8095 25.7222C22.8308 25.5292 22.7668 25.3363 22.639 25.1862C21.8295 24.2644 21.3821 23.0639 21.3821 21.8205C21.3821 18.9906 23.6616 16.6968 26.4737 16.6968C28.3058 16.6968 29.9887 17.7044 30.9048 19.3122L30.9687 19.4408L30.9048 19.5695C30.1379 21.0058 29.6905 22.7208 29.6053 24.5002V24.7146L29.3922 24.7574C28.2845 24.9718 27.2832 25.5507 26.3671 26.4939L25.9837 26.9012L25.8559 26.8798C25.3872 26.8155 25.0037 26.7297 24.6416 26.6011C24.2581 26.451 23.832 26.644 23.6829 27.0299C23.619 27.2228 23.619 27.4158 23.7042 27.6087C23.7894 27.8016 23.9385 27.9303 24.109 27.9946C24.5776 28.1875 25.0889 28.3161 25.6215 28.3805L25.728 28.4019L25.7919 28.4662C26.3245 29.045 26.921 29.5167 27.5814 29.8597L27.6667 29.9025L27.7093 29.9883C28.0501 30.8244 28.3484 31.6819 28.5827 32.5609L28.6466 32.7752C28.9662 34.0615 28.7318 35.0048 27.901 35.6479ZM33.2269 27.9946C32.396 28.6592 31.3735 29.045 30.3296 29.045C29.2644 29.045 28.2206 28.6806 27.411 27.9946L27.1767 27.8016L27.3897 27.5873C27.3897 27.5873 27.3897 27.5873 27.411 27.5658L27.5388 27.4372C28.1353 26.8584 29.094 26.1724 30.3296 26.1724C30.5 26.1724 30.6918 26.1938 30.9048 26.2152C31.7356 26.3653 32.5452 26.8369 33.2695 27.5873L33.4612 27.8016L33.2269 27.9946ZM36.252 28.7235L35.9963 29.1737L35.762 28.702C35.5277 28.2304 35.272 27.7802 35.0164 27.4158C35.0164 27.3943 34.9951 27.3943 34.9951 27.3943L34.9738 27.3729C33.9725 25.9794 32.673 25.0576 31.267 24.7789L31.0326 24.736L31.0752 24.5002C31.1604 22.7852 31.6291 21.1344 32.4173 19.8696L32.5665 19.6552C33.2056 18.6905 34.0151 18.0045 34.8886 17.6615L35.059 17.5972L35.1868 17.7258C36.5715 19.1622 37.4024 21.4989 37.4024 23.9857C37.3811 25.6793 36.9763 27.3729 36.252 28.7235Z" fill="white"/>
</svg>
