<svg width="48" height="48" viewBox="0 0 48 48" fill="none" xmlns="http://www.w3.org/2000/svg">
<path d="M35.112 26.8344C36.3698 21.9018 36.0909 17.8403 34.2753 14.7553C32.1753 11.1821 28.6534 9.90598 26.187 9.90598C20.5542 9.90598 18.148 15.6764 17.8144 16.5586C17.6667 16.7694 17.1909 17.4297 16.4198 18.262C15.1675 19.6213 13.669 20.8087 11.9628 21.7852C8.27139 23.8992 8.07998 25.2031 8.11279 25.6359C8.23858 27.4613 9.3378 27.4225 9.6167 27.4225C11.0714 27.4225 14.8995 26.3794 20.68 24.4097C21.3855 24.1711 22.1183 24.1267 22.78 24.2821C23.9612 24.565 24.3605 25.2031 24.1198 26.4238C23.7425 27.4835 21.3089 34.6411 23.5839 37.7759C23.7644 38.0256 24.0706 38.1421 24.3714 38.0756L27.2151 37.4486L29.1019 38.0534C29.2659 38.1088 31.3933 37.3598 31.3933 37.3598L34.9644 38.0756C35.0136 38.0867 35.5058 38.1976 35.7956 37.6761C35.9651 37.3764 35.8995 36.9936 35.6534 36.7495C32.5581 33.6534 35.1065 26.8621 35.112 26.8344ZM20.1878 22.9227C12.6136 25.5083 10.3167 25.8412 9.66045 25.8523C9.64404 25.819 9.41983 25.1643 12.7175 23.1502C14.5331 22.0405 16.1901 20.8087 17.5464 19.3273C17.787 19.0665 17.9948 18.8279 18.1808 18.606C18.7222 19.4549 19.5862 20.2927 20.8167 20.5368C20.7292 20.7754 20.669 21.0418 20.6472 21.3358C20.6144 21.8074 20.7019 22.2791 20.8987 22.734C20.6581 22.784 20.423 22.845 20.1878 22.9227ZM33.362 36.1558L31.4698 35.7785C31.3276 35.7507 29.3042 36.4776 29.3042 36.4776C29.3042 36.4776 27.1386 35.8617 27.0839 35.8728L24.5792 36.4221C23.3433 32.9821 25.6128 26.8344 25.6183 26.8011C26.0558 24.7148 25.1534 23.2389 23.13 22.7618C22.9769 22.7229 22.8128 22.7007 22.6542 22.6786C22.3206 22.2569 22.162 21.8518 22.1839 21.4634C22.2222 20.8198 22.7526 20.3648 22.7526 20.3648C23.0315 20.1374 23.119 19.749 22.9659 19.4216C22.8128 19.0942 22.4628 18.9167 22.1128 18.9888C20.3409 19.355 19.4933 17.9402 19.1925 17.2521C19.2034 17.23 19.2144 17.2133 19.2198 17.1911C19.2417 17.1356 21.287 11.4762 26.1761 11.4762C28.1886 11.4762 31.169 12.5415 32.9464 15.5599C34.5378 18.262 34.762 21.9129 33.6245 26.4016C33.4058 27.0008 31.5136 32.3273 33.362 36.1558Z" fill="white"/>
<path d="M24.2019 13.5569C22.8675 13.5569 21.7792 14.6555 21.7792 16.0093C21.7792 17.3631 22.8675 18.4617 24.2019 18.4617C25.5362 18.4617 26.6245 17.3631 26.6245 16.0093C26.6245 14.6555 25.5362 13.5569 24.2019 13.5569ZM24.2019 16.897C23.7151 16.897 23.3214 16.4976 23.3214 16.0093C23.3214 15.521 23.7151 15.1215 24.2019 15.1215C24.6886 15.1215 25.0823 15.521 25.0823 16.0093C25.0823 16.4976 24.6886 16.897 24.2019 16.897Z" fill="white"/>
</svg>
